<svg width="12" height="12" viewBox="0 0 12 12" fill="none" xmlns="http://www.w3.org/2000/svg">
<g clip-path="url(#clip0_1_173)">
<path d="M9.97217 3.67547C9.98514 3.6679 9.9959 3.65707 10.0034 3.64404C10.0109 3.63102 10.0148 3.61626 10.0148 3.60124C10.0148 3.58622 10.0109 3.57147 10.0034 3.55844C9.9959 3.54542 9.98514 3.53458 9.97217 3.52701L6.69065 1.62049C6.48068 1.49879 6.24229 1.43469 5.9996 1.43469C5.75691 1.43469 5.51852 1.49879 5.30856 1.62049L2.02768 3.52701C2.01471 3.53458 2.00394 3.54542 1.99646 3.55844C1.98898 3.57147 1.98505 3.58622 1.98505 3.60124C1.98505 3.61626 1.98898 3.63102 1.99646 3.64404C2.00394 3.65707 2.01471 3.6679 2.02768 3.67547L5.95674 5.98676C5.96996 5.99454 5.98501 5.99865 6.00035 5.99865C6.01569 5.99865 6.03075 5.99454 6.04397 5.98676L9.97217 3.67547Z" fill="white"/>
<path d="M1.65985 4.25981C1.64675 4.25224 1.63188 4.24827 1.61674 4.24829C1.60161 4.24832 1.58675 4.25234 1.57367 4.25994C1.56059 4.26755 1.54975 4.27848 1.54225 4.29162C1.53475 4.30476 1.53085 4.31965 1.53095 4.33479V8.0707C1.53127 8.25074 1.57872 8.42755 1.66858 8.58355C1.75844 8.73956 1.88757 8.86932 2.04313 8.95994L5.52704 11.0489C5.5401 11.0564 5.55491 11.0604 5.56999 11.0604C5.58506 11.0604 5.59988 11.0564 5.61294 11.0489C5.626 11.0414 5.63685 11.0305 5.6444 11.0175C5.65195 11.0044 5.65593 10.9896 5.65595 10.9745V6.64006C5.65593 6.62499 5.65195 6.61019 5.64441 6.59714C5.63687 6.58409 5.62603 6.57326 5.61298 6.56572L1.65985 4.25981Z" fill="white"/>
<path d="M6.34338 6.65512V10.9735C6.3434 10.9886 6.34738 11.0034 6.35493 11.0164C6.36248 11.0295 6.37333 11.0403 6.38639 11.0478C6.39945 11.0554 6.41427 11.0593 6.42934 11.0593C6.44442 11.0593 6.45923 11.0554 6.47229 11.0478L9.95598 8.95889C10.1114 8.86839 10.2405 8.73881 10.3304 8.58301C10.4203 8.4272 10.4678 8.2506 10.4684 8.07073V4.33481C10.4683 4.31975 10.4643 4.30497 10.4568 4.29195C10.4492 4.27893 10.4383 4.26812 10.4253 4.26061C10.4122 4.25311 10.3974 4.24916 10.3824 4.24918C10.3673 4.24919 10.3525 4.25316 10.3395 4.26069L6.38635 6.581C6.37333 6.58852 6.36251 6.59932 6.35497 6.61233C6.34743 6.62533 6.34344 6.64009 6.34338 6.65512Z" fill="white"/>
</g>
<defs>
<clipPath id="clip0_1_173">
<rect width="11" height="11" fill="white" transform="translate(0.499634 0.747681)"/>
</clipPath>
</defs>
</svg>
