<svg width="12" height="12" viewBox="0 0 12 12" fill="none" xmlns="http://www.w3.org/2000/svg">
<path d="M5.18562 4.33959C5.18562 4.61889 5.18562 4.88959 5.27371 5.14311C4.34773 6.23021 1.90281 9.10267 1.67507 9.32182C1.62981 9.36243 1.5936 9.41211 1.5688 9.46763C1.544 9.52315 1.53117 9.58327 1.53113 9.64408C1.53113 9.8267 1.64285 10.0029 1.73738 10.1017C1.87917 10.2499 2.48503 10.8107 2.59675 10.7033C2.92761 10.381 2.99421 10.2951 3.12957 10.1619C3.33367 9.96205 3.10808 9.55385 3.17898 9.38842C3.24988 9.22299 3.32507 9.19076 3.44753 9.16498C3.56999 9.1392 3.78699 9.22728 3.95671 9.22943C4.13503 9.23158 4.23171 9.15639 4.36492 9.03178C4.47234 8.93295 4.54968 8.84057 4.55183 8.69662C4.55613 8.50326 4.27683 8.2476 4.48523 8.0435C4.69363 7.83939 4.99441 8.1767 5.2157 8.15092C5.43699 8.12514 5.70554 7.81791 5.73347 7.68685C5.7614 7.5558 5.4821 7.21849 5.52507 7.02728C5.54011 6.96283 5.67117 6.81244 5.76999 6.79096C5.86882 6.76947 6.3071 6.9392 6.40593 6.91771C6.52624 6.89193 6.66589 6.76517 6.77976 6.69428C7.11277 6.83822 7.4157 6.89623 7.80456 6.89623C9.27624 6.89623 10.4686 5.74896 10.4686 4.33529C10.4686 2.92162 9.27624 1.7793 7.80456 1.7793C6.33289 1.7793 5.18562 2.92592 5.18562 4.33959ZM9.09363 3.8418C9.09363 3.97777 9.05331 4.11069 8.97776 4.22375C8.90222 4.33681 8.79485 4.42493 8.66922 4.47696C8.5436 4.529 8.40536 4.54261 8.272 4.51609C8.13864 4.48956 8.01614 4.42408 7.91999 4.32793C7.82384 4.23178 7.75836 4.10928 7.73184 3.97592C7.70531 3.84256 7.71892 3.70433 7.77096 3.5787C7.823 3.45308 7.91111 3.3457 8.02417 3.27016C8.13723 3.19462 8.27015 3.1543 8.40613 3.1543C8.58846 3.1543 8.76333 3.22673 8.89226 3.35566C9.02119 3.48459 9.09363 3.65946 9.09363 3.8418Z" fill="white"/>
</svg>
