<svg width="12" height="12" viewBox="0 0 12 12" fill="none" xmlns="http://www.w3.org/2000/svg">
<g clip-path="url(#clip0_1_165)">
<path d="M7.64634 2.13496C7.22825 1.68357 6.64431 1.435 5.99978 1.435C5.35181 1.435 4.76593 1.68207 4.34978 2.13066C3.92911 2.5842 3.72415 3.20058 3.77228 3.86617C3.86767 5.17929 4.86691 6.2475 5.99978 6.2475C7.13265 6.2475 8.13017 5.17951 8.22706 3.8666C8.27583 3.20703 8.06958 2.59193 7.64634 2.13496Z" fill="white"/>
<path d="M9.78106 11.0595H2.21857C2.11958 11.0608 2.02155 11.04 1.93161 10.9986C1.84168 10.9573 1.76209 10.8964 1.69865 10.8204C1.559 10.6535 1.50271 10.4255 1.54439 10.195C1.72572 9.18908 2.29161 8.3441 3.18107 7.75092C3.97126 7.22433 4.97222 6.93451 5.99982 6.93451C7.02741 6.93451 8.02837 7.22455 8.81856 7.75092C9.70802 8.34388 10.2739 9.18886 10.4552 10.1948C10.4969 10.4253 10.4406 10.6532 10.301 10.8202C10.2376 10.8962 10.158 10.9571 10.068 10.9985C9.97811 11.0399 9.88007 11.0608 9.78106 11.0595V11.0595Z" fill="white"/>
</g>
<defs>
<clipPath id="clip0_1_165">
<rect width="11" height="11" fill="white" transform="translate(0.499817 0.747681)"/>
</clipPath>
</defs>
</svg>
