<svg width="11" height="12" viewBox="0 0 11 12" fill="none" xmlns="http://www.w3.org/2000/svg">
<path d="M5.49969 1.77841C3.03565 1.77841 1.03094 3.78312 1.03094 6.24716C1.03094 8.7112 3.03565 10.7159 5.49969 10.7159C7.96374 10.7159 9.96844 8.7112 9.96844 6.24716C9.96844 3.78312 7.96374 1.77841 5.49969 1.77841ZM4.42075 4.28822C4.69296 3.99968 5.07602 3.84091 5.49969 3.84091C5.92337 3.84091 6.30299 4.00076 6.57628 4.29079C6.85321 4.5847 6.98792 4.97958 6.95612 5.40411C6.89253 6.24716 6.2394 6.93466 5.49969 6.93466C4.75999 6.93466 4.10557 6.24716 4.04327 5.4039C4.01169 4.97593 4.14618 4.57976 4.42075 4.28822ZM5.49969 10.0284C4.99491 10.0287 4.4952 9.92771 4.0302 9.7313C3.56519 9.53489 3.14436 9.24711 2.79266 8.88501C2.99409 8.59776 3.25074 8.35352 3.54762 8.16657C4.09526 7.81552 4.78835 7.62216 5.49969 7.62216C6.21104 7.62216 6.90413 7.81552 7.45112 8.16657C7.74825 8.35344 8.00513 8.59768 8.20673 8.88501C7.85506 9.24715 7.43423 9.53496 6.96922 9.73137C6.50421 9.92778 6.00448 10.0288 5.49969 10.0284Z" fill="white"/>
</svg>
