<svg width="18" height="19" viewBox="0 0 18 19" fill="none" xmlns="http://www.w3.org/2000/svg">
<path d="M9 0.499939C4.03125 0.499939 0 4.53119 0 9.49994C0 14.4687 4.03125 18.4999 9 18.4999C13.9687 18.4999 18 14.4687 18 9.49994C18 4.53119 13.9687 0.499939 9 0.499939ZM8.71875 14.7499C8.53333 14.7499 8.35207 14.695 8.1979 14.5919C8.04373 14.4889 7.92357 14.3425 7.85261 14.1712C7.78165 13.9999 7.76309 13.8114 7.79926 13.6295C7.83544 13.4477 7.92472 13.2806 8.05584 13.1495C8.18695 13.0184 8.35399 12.9291 8.53585 12.893C8.71771 12.8568 8.90621 12.8753 9.07751 12.9463C9.24882 13.0173 9.39524 13.1374 9.49825 13.2916C9.60126 13.4458 9.65625 13.627 9.65625 13.8124C9.65625 14.0611 9.55748 14.2995 9.38166 14.4753C9.20585 14.6512 8.96739 14.7499 8.71875 14.7499ZM10.2862 9.96869C9.5264 10.4787 9.42187 10.946 9.42187 11.3749C9.42187 11.549 9.35273 11.7159 9.22966 11.839C9.10659 11.962 8.93967 12.0312 8.76562 12.0312C8.59157 12.0312 8.42465 11.962 8.30158 11.839C8.17851 11.7159 8.10937 11.549 8.10937 11.3749C8.10937 10.3479 8.58187 9.53134 9.55406 8.87838C10.4578 8.27181 10.9687 7.88744 10.9687 7.04228C10.9687 6.46759 10.6406 6.03119 9.9614 5.70822C9.80156 5.63228 9.44578 5.55822 9.00797 5.56338C8.45859 5.57041 8.03203 5.70166 7.70344 5.96603C7.08375 6.46478 7.03125 7.00759 7.03125 7.01556C7.02709 7.10174 7.006 7.18626 6.96919 7.26429C6.93237 7.34232 6.88054 7.41233 6.81666 7.47033C6.75279 7.52833 6.67811 7.57318 6.5969 7.60233C6.51569 7.63147 6.42954 7.64433 6.34336 7.64017C6.25718 7.63602 6.17266 7.61493 6.09463 7.57811C6.0166 7.54129 5.94659 7.48946 5.88859 7.42559C5.83059 7.36171 5.78574 7.28704 5.75659 7.20583C5.72745 7.12462 5.71459 7.03846 5.71875 6.95228C5.72391 6.83837 5.80312 5.81228 6.87984 4.94603C7.43812 4.49697 8.14828 4.26353 8.98922 4.25322C9.58453 4.24619 10.1437 4.34697 10.523 4.52603C11.6578 5.06275 12.2812 5.95759 12.2812 7.04228C12.2812 8.62806 11.2214 9.34009 10.2862 9.96869Z" fill="#714FD1"/>
</svg>
