<svg width="24" height="23" viewBox="0 0 24 23" fill="none" xmlns="http://www.w3.org/2000/svg">
<path d="M13.4062 10.1056H19.5586C19.6021 10.1056 19.6438 10.1229 19.6746 10.1536C19.7054 10.1844 19.7227 10.2261 19.7227 10.2697V18.5314C19.7227 19.2742 19.4276 19.9866 18.9023 20.5118C18.3771 21.0371 17.6647 21.3321 16.9219 21.3321H7.07812C6.33531 21.3321 5.62292 21.0371 5.09767 20.5118C4.57243 19.9866 4.27734 19.2742 4.27734 18.5314V4.46887C4.27734 3.72606 4.57243 3.01367 5.09767 2.48842C5.62292 1.96317 6.33531 1.66809 7.07812 1.66809H11.1211C11.1646 1.66809 11.2063 1.68538 11.2371 1.71614C11.2679 1.74691 11.2852 1.78864 11.2852 1.83215V7.9845C11.2852 8.54704 11.5086 9.08655 11.9064 9.48434C12.3042 9.88212 12.8437 10.1056 13.4062 10.1056ZM8.48437 17.1368H15.5156C15.7052 17.1368 15.887 17.0615 16.0211 16.9275C16.1552 16.7934 16.2305 16.6116 16.2305 16.422C16.2305 16.2324 16.1552 16.0506 16.0211 15.9165C15.887 15.7825 15.7052 15.7071 15.5156 15.7071H8.48437C8.29479 15.7071 8.11296 15.7825 7.9789 15.9165C7.84484 16.0506 7.76953 16.2324 7.76953 16.422C7.76953 16.6116 7.84484 16.7934 7.9789 16.9275C8.11296 17.0615 8.29479 17.1368 8.48437 17.1368ZM8.48437 13.6212H15.5156C15.7052 13.6212 15.887 13.5459 16.0211 13.4118C16.1552 13.2778 16.2305 13.096 16.2305 12.9064C16.2305 12.7168 16.1552 12.535 16.0211 12.4009C15.887 12.2668 15.7052 12.1915 15.5156 12.1915H8.48437C8.29479 12.1915 8.11296 12.2668 7.9789 12.4009C7.84484 12.535 7.76953 12.7168 7.76953 12.9064C7.76953 13.096 7.84484 13.2778 7.9789 13.4118C8.11296 13.5459 8.29479 13.6212 8.48437 13.6212Z" fill="white" stroke="#714FD1" stroke-width="0.0234375"/>
<path d="M12.8447 2.22741L19.1644 8.54714L12.8447 2.22741ZM12.8447 2.22741C12.8447 2.22741 12.8447 2.2274 12.8447 2.2274M12.8447 2.22741L12.8447 2.2274M12.8447 2.2274C12.8341 2.21682 12.8205 2.20962 12.8058 2.20671C12.7911 2.20379 12.7758 2.2053 12.7619 2.21104C12.748 2.21678 12.7362 2.22649 12.7278 2.23896C12.7194 2.25142 12.7149 2.26608 12.7148 2.28109V7.98561C12.7148 8.16898 12.7877 8.34484 12.9174 8.4745C13.047 8.60417 13.2229 8.67701 13.4063 8.67701H19.1107C19.1258 8.67695 19.1404 8.67245 19.1529 8.66407C19.1654 8.6557 19.1751 8.64383 19.1808 8.62995C19.1866 8.61607 19.1881 8.6008 19.1851 8.58607C19.1822 8.57135 19.175 8.55781 19.1645 8.54716L12.8447 2.2274Z" fill="white" stroke="#714FD1" stroke-width="0.0234375"/>
</svg>
