<svg width="16" height="16" viewBox="0 0 16 16" fill="none" xmlns="http://www.w3.org/2000/svg">
<path d="M10.2452 2.39175C9.6751 1.77622 8.87881 1.43726 7.99991 1.43726C7.11631 1.43726 6.31739 1.77417 5.74991 2.38589C5.17627 3.00435 4.89678 3.84487 4.96241 4.75249C5.09248 6.54311 6.45508 7.99975 7.99991 7.99975C9.54473 7.99975 10.905 6.54341 11.0371 4.75307C11.1036 3.85366 10.8224 3.01489 10.2452 2.39175Z" fill="white"/>
<path d="M13.1562 14.5616H2.84367C2.70869 14.5634 2.57502 14.535 2.45237 14.4786C2.32973 14.4222 2.2212 14.3392 2.13469 14.2356C1.94426 14.0079 1.8675 13.6971 1.92434 13.3827C2.1716 12.0111 2.94328 10.8588 4.15617 10.0499C5.23371 9.33186 6.59865 8.93665 7.99992 8.93665C9.40119 8.93665 10.7661 9.33215 11.8437 10.0499C13.0566 10.8585 13.8282 12.0108 14.0755 13.3824C14.1323 13.6968 14.0556 14.0076 13.8652 14.2353C13.7787 14.339 13.6702 14.422 13.5475 14.4785C13.4249 14.535 13.2912 14.5634 13.1562 14.5616Z" fill="white"/>
</svg>
