<svg width="12" height="12" viewBox="0 0 12 12" fill="none" xmlns="http://www.w3.org/2000/svg">
<path d="M5.18617 4.33953C5.18617 4.61883 5.18617 4.88953 5.27426 5.14304C4.34828 6.23015 1.90336 9.10261 1.67562 9.32175C1.63036 9.36236 1.59415 9.41205 1.56935 9.46757C1.54455 9.52309 1.53172 9.58321 1.53168 9.64402C1.53168 9.82664 1.6434 10.0028 1.73793 10.1016C1.87972 10.2499 2.48558 10.8106 2.5973 10.7032C2.92816 10.3809 2.99476 10.295 3.13011 10.1618C3.33422 9.96199 3.10863 9.55379 3.17953 9.38836C3.25043 9.22293 3.32562 9.1907 3.44808 9.16492C3.57054 9.13914 3.78754 9.22722 3.95726 9.22937C4.13558 9.23152 4.23226 9.15632 4.36547 9.03172C4.47289 8.93289 4.55023 8.8405 4.55238 8.69656C4.55668 8.5032 4.27738 8.24754 4.48578 8.04343C4.69418 7.83933 4.99496 8.17664 5.21625 8.15086C5.43754 8.12507 5.70609 7.81785 5.73402 7.68679C5.76195 7.55574 5.48265 7.21843 5.52562 7.02722C5.54066 6.96277 5.67172 6.81238 5.77054 6.79089C5.86937 6.76941 6.30765 6.93914 6.40648 6.91765C6.52679 6.89187 6.66644 6.76511 6.78031 6.69422C7.11332 6.83816 7.41625 6.89617 7.80511 6.89617C9.27679 6.89617 10.4692 5.7489 10.4692 4.33523C10.4692 2.92156 9.27679 1.77924 7.80511 1.77924C6.33343 1.77924 5.18617 2.92586 5.18617 4.33953ZM9.09418 3.84174C9.09418 3.97771 9.05386 4.11063 8.97831 4.22369C8.90277 4.33675 8.7954 4.42487 8.66977 4.4769C8.54415 4.52894 8.40591 4.54255 8.27255 4.51603C8.13919 4.4895 8.01669 4.42402 7.92054 4.32787C7.82439 4.23172 7.75891 4.10922 7.73239 3.97586C7.70586 3.8425 7.71947 3.70426 7.77151 3.57864C7.82354 3.45302 7.91166 3.34564 8.02472 3.2701C8.13778 3.19456 8.2707 3.15424 8.40668 3.15424C8.58901 3.15424 8.76388 3.22667 8.89281 3.3556C9.02174 3.48453 9.09418 3.6594 9.09418 3.84174Z" fill="#2D3748"/>
</svg>
