<svg width="24" height="23" viewBox="0 0 24 23" fill="none" xmlns="http://www.w3.org/2000/svg">
<path d="M8.48438 19.9373C9.26103 19.9373 9.89062 19.3077 9.89062 18.531C9.89062 17.7544 9.26103 17.1248 8.48438 17.1248C7.70772 17.1248 7.07812 17.7544 7.07812 18.531C7.07812 19.3077 7.70772 19.9373 8.48438 19.9373Z" fill="white"/>
<path d="M18.3281 19.9373C19.1048 19.9373 19.7344 19.3077 19.7344 18.531C19.7344 17.7544 19.1048 17.1248 18.3281 17.1248C17.5515 17.1248 16.9219 17.7544 16.9219 18.531C16.9219 19.3077 17.5515 19.9373 18.3281 19.9373Z" fill="white"/>
<path d="M20.8242 5.55784C20.7254 5.43701 20.601 5.33969 20.4599 5.27295C20.3188 5.20621 20.1647 5.17173 20.0086 5.172H6.63384L6.36445 3.64358C6.33573 3.48077 6.25056 3.3333 6.1239 3.22705C5.99724 3.12081 5.83719 3.06259 5.67187 3.06262H2.85937C2.67289 3.06262 2.49405 3.1367 2.36219 3.26856C2.23033 3.40042 2.15625 3.57927 2.15625 3.76575C2.15625 3.95223 2.23033 4.13107 2.36219 4.26293C2.49405 4.39479 2.67289 4.46887 2.85937 4.46887H5.08213L7.08867 15.841C7.11739 16.0038 7.20257 16.1513 7.32923 16.2576C7.45588 16.3638 7.61593 16.422 7.78125 16.422H19.0312C19.2177 16.422 19.3966 16.3479 19.5284 16.2161C19.6603 16.0842 19.7344 15.9053 19.7344 15.7189C19.7344 15.5324 19.6603 15.3535 19.5284 15.2217C19.3966 15.0898 19.2177 15.0157 19.0312 15.0157H8.37099L8.12314 13.6095H18.743C18.9868 13.6092 19.223 13.5246 19.4117 13.3702C19.6004 13.2157 19.7299 13.0008 19.7783 12.7618L21.0439 6.43367C21.0744 6.28052 21.0705 6.12251 21.0325 5.97105C20.9945 5.81959 20.9234 5.67845 20.8242 5.55784Z" fill="white"/>
</svg>
