<svg width="24" height="23" viewBox="0 0 24 23" fill="none" xmlns="http://www.w3.org/2000/svg">
<path d="M12 2.35846C6.952 2.35846 2.85938 6.45109 2.85938 11.4991C2.85938 16.5471 6.952 20.6397 12 20.6397C17.048 20.6397 21.1406 16.5471 21.1406 11.4991C21.1406 6.45109 17.048 2.35846 12 2.35846Z" fill="white" stroke="#714FD1" stroke-width="0.75" stroke-miterlimit="10"/>
<path d="M12.0001 2.35846C9.44824 2.35846 7.04883 6.45109 7.04883 11.4991C7.04883 16.5471 9.44824 20.6397 12.0001 20.6397C14.552 20.6397 16.9515 16.5471 16.9515 11.4991C16.9515 6.45109 14.552 2.35846 12.0001 2.35846Z" fill="white" stroke="#714FD1" stroke-width="0.75" stroke-miterlimit="10"/>
<path d="M5.90625 5.4054C7.58672 6.59851 9.70224 7.30999 12.0001 7.30999C14.298 7.30999 16.4136 6.59851 18.094 5.4054" fill="white"/>
<path d="M5.90625 5.4054C7.58672 6.59851 9.70224 7.30999 12.0001 7.30999C14.298 7.30999 16.4136 6.59851 18.094 5.4054" stroke="#714FD1" stroke-width="0.75" stroke-linecap="round" stroke-linejoin="round"/>
<path d="M18.094 17.5943C16.4136 16.4012 14.298 15.6897 12.0001 15.6897C9.70224 15.6897 7.58672 16.4012 5.90625 17.5943" stroke="#714FD1" stroke-width="0.75" stroke-linecap="round" stroke-linejoin="round"/>
<path d="M12 2.35846V20.6397" stroke="#714FD1" stroke-width="0.75" stroke-miterlimit="10"/>
<path d="M21.1406 11.4988H2.85938" stroke="#714FD1" stroke-width="0.75" stroke-miterlimit="10"/>
</svg>
