<svg width="24" height="23" viewBox="0 0 24 23" fill="none" xmlns="http://www.w3.org/2000/svg">
<path d="M4.94668 4.8181H19.0092C19.1734 4.81803 19.3375 4.82845 19.5005 4.8493C19.4453 4.46161 19.3121 4.08911 19.109 3.75427C18.9059 3.41943 18.6371 3.12919 18.3188 2.90104C18.0006 2.67288 17.6394 2.51155 17.257 2.42676C16.8747 2.34198 16.4792 2.33549 16.0943 2.4077L4.5292 4.38217H4.51602C3.79007 4.52099 3.14451 4.93171 2.71118 5.53046C3.36403 5.0661 4.14553 4.81707 4.94668 4.8181Z" fill="white"/>
<path d="M19.0093 5.87476H4.94678C4.20111 5.87557 3.48621 6.17215 2.95894 6.69942C2.43167 7.22669 2.13509 7.94158 2.13428 8.68725V17.1248C2.13509 17.8704 2.43167 18.5853 2.95894 19.1126C3.48621 19.6399 4.20111 19.9364 4.94678 19.9373H19.0093C19.7549 19.9364 20.4698 19.6399 20.9971 19.1126C21.5244 18.5853 21.821 17.8704 21.8218 17.1248V8.68725C21.821 7.94158 21.5244 7.22669 20.9971 6.69942C20.4698 6.17215 19.7549 5.87557 19.0093 5.87476ZM16.9219 14.3123C16.6437 14.3123 16.3719 14.2298 16.1406 14.0753C15.9093 13.9207 15.7291 13.7011 15.6227 13.4442C15.5162 13.1872 15.4884 12.9044 15.5426 12.6317C15.5969 12.3589 15.7308 12.1083 15.9275 11.9116C16.1242 11.715 16.3747 11.581 16.6475 11.5268C16.9203 11.4725 17.2031 11.5004 17.46 11.6068C17.717 11.7132 17.9366 11.8935 18.0911 12.1247C18.2456 12.356 18.3281 12.6279 18.3281 12.906C18.3281 13.279 18.18 13.6366 17.9162 13.9004C17.6525 14.1641 17.2948 14.3123 16.9219 14.3123Z" fill="white"/>
<path d="M2.15625 11.6513V7.27875C2.15625 6.32645 2.68359 4.72992 4.51392 4.38407C6.06738 4.09271 7.60547 4.09271 7.60547 4.09271C7.60547 4.09271 8.61621 4.79584 7.78125 4.79584C6.94629 4.79584 6.96826 5.8725 7.78125 5.8725C8.59424 5.8725 7.78125 6.90521 7.78125 6.90521L4.50732 10.6186L2.15625 11.6513Z" fill="white"/>
</svg>
