<svg width="17" height="17" viewBox="0 0 17 17" fill="none" xmlns="http://www.w3.org/2000/svg">
<path d="M1.41959 15.5833L2.37726 12.0643C1.74623 10.9825 1.4147 9.75226 1.41676 8.49993C1.41676 4.5878 4.58797 1.4166 8.50009 1.4166C12.4122 1.4166 15.5834 4.5878 15.5834 8.49993C15.5834 12.4121 12.4122 15.5833 8.50009 15.5833C7.24831 15.5853 6.01856 15.254 4.93717 14.6235L1.41959 15.5833ZM5.94372 5.17643C5.85224 5.18211 5.76286 5.2062 5.68092 5.24726C5.60408 5.29077 5.53394 5.34517 5.47267 5.40876C5.38767 5.4888 5.33951 5.55822 5.2878 5.62551C5.02601 5.96622 4.88519 6.38443 4.88759 6.8141C4.88901 7.16118 4.97967 7.49905 5.12134 7.81497C5.41105 8.45389 5.88776 9.13034 6.51747 9.75722C6.66905 9.9081 6.81709 10.0597 6.97647 10.2006C7.75803 10.8888 8.6894 11.385 9.69647 11.6499L10.0995 11.7115C10.2305 11.7186 10.3616 11.7087 10.4933 11.7023C10.6996 11.6917 10.9011 11.6358 11.0834 11.5387C11.201 11.4763 11.2562 11.4452 11.3547 11.3828C11.3547 11.3828 11.3851 11.363 11.4432 11.3191C11.5388 11.2483 11.5976 11.198 11.677 11.1151C11.7358 11.0542 11.7868 10.9826 11.8257 10.9012C11.881 10.7857 11.9362 10.5654 11.9589 10.382C11.9759 10.2417 11.9709 10.1652 11.9688 10.1178C11.966 10.042 11.9029 9.96335 11.8342 9.93005L11.422 9.74518C11.422 9.74518 10.8057 9.47672 10.4296 9.3053C10.3899 9.28802 10.3474 9.27817 10.3042 9.27626C10.2558 9.27128 10.2068 9.27674 10.1606 9.29225C10.1144 9.30777 10.0721 9.33299 10.0365 9.36622V9.3648C10.0329 9.3648 9.98547 9.40518 9.47334 10.0257C9.44395 10.0652 9.40346 10.095 9.35703 10.1114C9.31061 10.1278 9.26035 10.13 9.21267 10.1178C9.16652 10.1054 9.12131 10.0898 9.07738 10.071C8.98955 10.0342 8.95909 10.02 8.89888 9.9938L8.89534 9.99239C8.49011 9.81546 8.11492 9.57649 7.78326 9.28405C7.69401 9.20614 7.61113 9.12114 7.52613 9.03897C7.24746 8.7721 7.0046 8.47019 6.80363 8.1408L6.76184 8.07351C6.73182 8.0283 6.70755 7.97952 6.68959 7.9283C6.66267 7.82418 6.7328 7.7406 6.7328 7.7406C6.7328 7.7406 6.90492 7.55218 6.98497 7.45018C7.05161 7.36541 7.11379 7.27722 7.17126 7.18597C7.25484 7.05139 7.28105 6.91326 7.23713 6.8063C7.0388 6.3218 6.83338 5.83943 6.6223 5.3606C6.58051 5.26568 6.45655 5.19768 6.34392 5.18422C6.30567 5.17997 6.26742 5.17572 6.22917 5.17289C6.13405 5.16816 6.03873 5.16911 5.94372 5.17572V5.17643Z" fill="#714FD1"/>
</svg>
