<svg width="15" height="16" viewBox="0 0 15 16" fill="none" xmlns="http://www.w3.org/2000/svg">
<path d="M7.66289 3.46754C7.61927 3.42581 7.56124 3.40253 7.50088 3.40253C7.44052 3.40253 7.38248 3.42581 7.33887 3.46754L1.94531 8.61998C1.92241 8.64189 1.90418 8.66822 1.89175 8.69738C1.87931 8.72653 1.87291 8.75791 1.87295 8.78961L1.87207 13.6253C1.87207 13.874 1.97084 14.1124 2.14666 14.2883C2.32247 14.4641 2.56093 14.5628 2.80957 14.5628H5.625C5.74932 14.5628 5.86855 14.5135 5.95645 14.4256C6.04436 14.3376 6.09375 14.2184 6.09375 14.0941V10.1097C6.09375 10.0476 6.11844 9.98795 6.1624 9.944C6.20635 9.90004 6.26596 9.87535 6.32812 9.87535H8.67187C8.73403 9.87535 8.79365 9.90004 8.8376 9.944C8.88155 9.98795 8.90625 10.0476 8.90625 10.1097V14.0941C8.90625 14.2184 8.95563 14.3376 9.04354 14.4256C9.13145 14.5135 9.25068 14.5628 9.375 14.5628H12.1893C12.4379 14.5628 12.6764 14.4641 12.8522 14.2883C13.028 14.1124 13.1268 13.874 13.1268 13.6253V8.78961C13.1268 8.75791 13.1204 8.72653 13.108 8.69738C13.0955 8.66822 13.0773 8.64189 13.0544 8.61998L7.66289 3.46754Z" fill="white"/>
<path d="M14.3825 7.65372L12.1911 5.55723V2.37588C12.1911 2.25156 12.1417 2.13234 12.0538 2.04443C11.9659 1.95652 11.8467 1.90713 11.7223 1.90713H10.3161C10.1918 1.90713 10.0725 1.95652 9.98464 2.04443C9.89673 2.13234 9.84735 2.25156 9.84735 2.37588V3.31338L8.15047 1.69092C7.99168 1.53038 7.75555 1.43839 7.50037 1.43839C7.24608 1.43839 7.01053 1.53038 6.85174 1.69122L0.620299 7.65313C0.438073 7.82891 0.415221 8.11807 0.581041 8.3085C0.622681 8.35657 0.673667 8.39566 0.730894 8.4234C0.788122 8.45113 0.850395 8.46694 0.913924 8.46984C0.977453 8.47275 1.04091 8.46269 1.10043 8.4403C1.15995 8.4179 1.21429 8.38362 1.26014 8.33956L7.33924 2.53057C7.38286 2.48885 7.44089 2.46556 7.50125 2.46556C7.56161 2.46556 7.61965 2.48885 7.66327 2.53057L13.7429 8.33956C13.8325 8.42544 13.9525 8.47231 14.0765 8.46989C14.2006 8.46748 14.3186 8.41597 14.4048 8.32667C14.5846 8.14034 14.5697 7.83272 14.3825 7.65372Z" fill="white"/>
</svg>
