<svg width="18" height="17" viewBox="0 0 18 17" fill="none" xmlns="http://www.w3.org/2000/svg">
<path d="M1.91947 15.5834L2.87714 12.0644C2.24611 10.9826 1.91458 9.75235 1.91664 8.50002C1.91664 4.5879 5.08784 1.41669 8.99997 1.41669C12.9121 1.41669 16.0833 4.5879 16.0833 8.50002C16.0833 12.4121 12.9121 15.5834 8.99997 15.5834C7.74819 15.5854 6.51843 15.2541 5.43705 14.6236L1.91947 15.5834ZM6.44359 5.17652C6.35212 5.1822 6.26274 5.20629 6.1808 5.24735C6.10396 5.29087 6.03382 5.34526 5.97255 5.40885C5.88755 5.4889 5.83939 5.55831 5.78768 5.6256C5.52588 5.96631 5.38507 6.38452 5.38747 6.81419C5.38889 7.16127 5.47955 7.49915 5.62122 7.81506C5.91093 8.45398 6.38764 9.13044 7.01734 9.75731C7.16893 9.90819 7.31697 10.0598 7.47634 10.2007C8.25791 10.8888 9.18927 11.3851 10.1963 11.65L10.5994 11.7116C10.7304 11.7187 10.8615 11.7088 10.9932 11.7024C11.1995 11.6917 11.4009 11.6359 11.5833 11.5388C11.7008 11.4764 11.7561 11.4453 11.8546 11.3829C11.8546 11.3829 11.885 11.3631 11.9431 11.3192C12.0387 11.2484 12.0975 11.1981 12.1768 11.1152C12.2356 11.0543 12.2866 10.9827 12.3256 10.9013C12.3808 10.7858 12.4361 10.5655 12.4588 10.3821C12.4758 10.2418 12.4708 10.1653 12.4687 10.1179C12.4658 10.0421 12.4028 9.96344 12.3341 9.93015L11.9218 9.74527C11.9218 9.74527 11.3056 9.47681 10.9295 9.3054C10.8898 9.28811 10.8473 9.27826 10.8041 9.27635C10.7556 9.27138 10.7067 9.27683 10.6605 9.29235C10.6143 9.30786 10.572 9.33308 10.5363 9.36631V9.36489C10.5328 9.36489 10.4853 9.40527 9.97322 10.0258C9.94382 10.0653 9.90334 10.0951 9.85691 10.1115C9.81049 10.1279 9.76023 10.1301 9.71255 10.1179C9.6664 10.1055 9.62119 10.0899 9.57726 10.0711C9.48943 10.0343 9.45897 10.0201 9.39876 9.9939L9.39522 9.99248C8.98999 9.81555 8.61479 9.57658 8.28314 9.28415C8.19389 9.20623 8.11101 9.12123 8.02601 9.03906C7.74734 8.77219 7.50447 8.47028 7.30351 8.1409L7.26172 8.0736C7.2317 8.02839 7.20743 7.97961 7.18947 7.9284C7.16255 7.82427 7.23268 7.74069 7.23268 7.74069C7.23268 7.74069 7.4048 7.55227 7.48484 7.45027C7.55149 7.3655 7.61367 7.27731 7.67113 7.18606C7.75472 7.05148 7.78093 6.91335 7.73701 6.8064C7.53868 6.3219 7.33326 5.83952 7.12218 5.36069C7.08039 5.26577 6.95643 5.19777 6.8438 5.18431C6.80555 5.18006 6.7673 5.17581 6.72905 5.17298C6.63393 5.16825 6.53861 5.1692 6.44359 5.17581V5.17652Z" fill="white"/>
</svg>
